:SAMPLES-PER-SECOND 30
:FULLY-SPECIFIED
:DEGREES
874
root  1.82278 39.171 32.0066 -178.437 0.0599844 176.636
RightUpLeg  -20.9248 -32.6105 -1.30497
RightLeg  28.5908 7.26294 4.08724
RightFoot  -3.49913 0.0271029 -0.809815
RightToes  1.33877e-009 0 -3.6325e-017
Spine  22.0486 -0.101604 -0.142853
Spine1  7.52266 -0.920953 3.08673
HEad  -23.2369 -11.1128 1.05364
LeftShoulder1  0.538103 1.75125 -24.4525
LeftArm  -20.0521 0.0534645 -37.0384
LeftForeArm  56.7028 -78.7171 -77.5225
LeftHand  -0.163353 0.804487 4.0787
RightShoulder  -0.0874195 -3.7855 21.9618
RightArm  -15.1042 7.20853 38.8676
RightForeArm  105.251 73.9333 135.432
RightHand  -0.200076 -1.14236 -5.35253
LeftUpLeg  -16.1507 1.72231 -2.42919
LeftLeg  19.1095 -1.40162 -0.230238
LeftFoot  -4.44655 -0.155208 2.99952
LeftToes  -1.45701e-009 4.75788e-011 -4.21586e-011
875
root  2.27384 38.8727 32.0022 -178.619 0.729733 176.324
RightUpLeg  -25.2701 -34.0784 -2.11186
RightLeg  37.9205 10.8673 8.76258
RightFoot  -2.37034 -0.503932 6.29959
RightToes  1.33877e-009 0 -3.6325e-017
Spine  22.1106 0.538149 -3.16445
Spine1  6.89473 -1.00292 4.20453
HEad  -22.2023 -11.0486 0.893493
LeftShoulder1  0.536617 1.78285 -24.9428
LeftArm  -20.5197 0.171029 -36.2552
LeftForeArm  57.5539 -78.751 -78.5404
LeftHand  -0.17114 0.330148 3.91324
RightShoulder  -0.0920617 -3.80705 21.5771
RightArm  -14.7655 6.93744 40.0868
RightForeArm  105.387 74.1688 134.72
RightHand  -0.191707 -1.12781 -5.11475
LeftUpLeg  -17.3148 5.35294 -1.94109
LeftLeg  21.8976 -4.27889 -1.54859
LeftFoot  -5.67452 -0.0532406 1.78443
LeftToes  -1.45701e-009 4.75788e-011 -4.21586e-011
876
root  2.67921 38.5641 31.9305 -179.561 1.1314 175.72
RightUpLeg  -26.9464 -34.757 -5.73039
RightLeg  46.2331 15.8134 16.7138
RightFoot  -2.02912 -1.76748 21.0474
RightToes  1.33877e-009 0 -3.6325e-017
Spine  22.0106 0.53869 -5.09939
Spine1  7.25368 -0.976324 2.84336
HEad  -21.7317 -11.3591 1.11326
LeftShoulder1  0.482516 1.9482 -24.769
LeftArm  -20.7326 -0.129305 -35.7237
LeftForeArm  57.536 -78.7493 -78.7225
LeftHand  -0.149363 1.02361 3.87806
RightShoulder  -0.130263 -3.93704 21.8845
RightArm  -14.6362 6.79787 40.9662
RightForeArm  105.549 74.24 134.521
RightHand  -0.194703 -0.764987 -4.82306
LeftUpLeg  -17.4897 6.60497 -1.77117
LeftLeg  24.6444 -5.06871 -2.17731
LeftFoot  -7.06502 -0.0161314 1.57398
LeftToes  -1.45701e-009 4.75788e-011 -4.21586e-011
877
root  3.13897 38.3328 31.8724 179.626 1.12532 175.766
RightUpLeg  -27.1674 -33.6978 -9.47577
RightLeg  52.1599 20.5446 25.6083
RightFoot  -1.23601 -2.83713 31.389
RightToes  1.33877e-009 0 -3.6325e-017
Spine  22.3048 0.531669 -6.00335
Spine1  7.00785 -0.948904 1.83351
HEad  -20.3302 -11.3113 0.952944
LeftShoulder1  0.421176 2.14547 -24.7637
LeftArm  -20.4324 -0.122904 -35.6625
LeftForeArm  57.7405 -78.7554 -79.1851
LeftHand  -0.169071 1.05705 4.46343
RightShoulder  -0.205159 -4.18015 22.8663
RightArm  -14.2452 6.44486 40.5636
RightForeArm  106.112 74.1595 134.873
RightHand  -0.185328 -0.640488 -4.48668
LeftUpLeg  -17.6305 6.44494 -0.810392
LeftLeg  26.9198 -4.85526 -2.31153
LeftFoot  -8.08914 0.0139229 1.2229
LeftToes  -1.45701e-009 4.75788e-011 -4.21586e-011
878
root  3.65333 38.3059 31.8071 179.105 1.24305 176.832
RightUpLeg  -26.7384 -31.6629 -12.0041
RightLeg  54.0955 20.917 27.6907
RightFoot  -1.96253 -2.6107 30.8777
RightToes  1.33877e-009 0 -3.6325e-017
Spine  22.6392 0.745254 -5.74842
Spine1  6.71962 -0.821217 2.04664
HEad  -19.9821 -11.938 0.717294
LeftShoulder1  0.401961 2.21614 -24.9766
LeftArm  -20.0176 -0.0616091 -35.8943
LeftForeArm  56.4216 -78.7045 -77.3722
LeftHand  -0.128671 0.513362 3.01508
RightShoulder  -0.257702 -4.3513 23.1263
RightArm  -14.1584 5.75693 40.5046
RightForeArm  105.725 74.3662 134.146
RightHand  -0.192037 -0.39973 -4.46347
LeftUpLeg  -17.259 6.14251 1.3539
LeftLeg  27.6831 -4.74154 -2.32986
LeftFoot  -8.50782 0.0375924 0.543922
LeftToes  -1.45701e-009 4.75788e-011 -4.21586e-011
879
root  4.20175 38.3753 31.7017 179.029 1.85551 178.327
RightUpLeg  -25.923 -29.1257 -13.7999
RightLeg  50.7846 15.7362 19.4309
RightFoot  -2.02416 -2.24242 27.0583
RightToes  1.33877e-009 0 -3.6325e-017
Spine  22.193 0.813567 -4.42605
Spine1  6.97439 -0.416472 1.51781
HEad  -19.0326 -12.484 1.00218
LeftShoulder1  0.41046 2.17895 -24.7457
LeftArm  -19.8434 0.664812 -36.3693
LeftForeArm  57.349 -78.7411 -78.6637
LeftHand  -0.175449 0.786611 4.35363
RightShoulder  -0.286552 -4.43291 23.6624
RightArm  -14.0772 5.27409 40.6217
RightForeArm  105.266 74.5434 133.481
RightHand  -0.173677 -1.18013 -4.64509
LeftUpLeg  -16.8024 6.04504 4.0367
LeftLeg  27.6011 -4.49547 -2.18511
LeftFoot  -8.62526 0.058256 -0.250243
LeftToes  -1.45701e-009 4.75788e-011 -4.21586e-011
880
root  4.74849 38.5392 31.6074 179.151 2.12884 179.707
RightUpLeg  -24.4191 -26.6663 -15.6001
RightLeg  45.483 10.2188 10.6721
RightFoot  -0.48672 -1.86206 19.3185
RightToes  1.33877e-009 0 -3.6325e-017
Spine  22.0454 0.850498 -3.36335
Spine1  6.65283 -0.377119 2.30444
HEad  -18.3291 -12.5663 0.733924
LeftShoulder1  0.344724 2.41232 -25.3335
LeftArm  -19.7086 1.4626 -35.9159
LeftForeArm  60.4935 -78.8591 -80.8251
LeftHand  -0.109741 1.03193 2.81619
RightShoulder  -0.258863 -4.35099 23.2755
RightArm  -13.8984 4.4972 41.0734
RightForeArm  105.281 74.6757 133.037
RightHand  -0.149354 -1.24829 -4.05131
LeftUpLeg  -15.9925 5.5415 6.50263
LeftLeg  26.2581 -4.16873 -1.8816
LeftFoot  -8.09636 0.0887629 -1.40371
LeftToes  -1.45701e-009 4.75788e-011 -4.21586e-011
881
root  5.30142 38.6273 31.5159 179.138 2.19829 -179.79
RightUpLeg  -22.257 -24.3521 -18.2855
RightLeg  39.6149 6.09062 5.1126
RightFoot  -0.868552 -1.12006 12.0616
RightToes  1.33877e-009 0 -3.6325e-017
Spine  21.8725 0.683322 -2.65351
Spine1  6.71306 -0.479365 2.54807
HEad  -17.7001 -12.8501 1.05633
LeftShoulder1  0.278837 2.61496 -25.1329
LeftArm  -19.8186 1.94876 -35.5615
LeftForeArm  61.1532 -78.8757 -81.6485
LeftHand  -0.0884087 1.01829 2.21584
RightShoulder  -0.191343 -4.13072 22.9378
RightArm  -13.7992 3.94567 41.6304
RightForeArm  104.715 74.729 132.751
RightHand  -0.185862 -0.386369 -4.29357
LeftUpLeg  -15.1443 5.21943 8.04305
LeftLeg  25.0221 -4.12803 -1.75195
LeftFoot  -7.61746 0.125783 -2.47506
LeftToes  -1.45701e-009 4.75788e-011 -4.21586e-011
